<svg xmlns="http://www.w3.org/2000/svg" width="367" height="78" viewBox="0 0 367 78" fill="none"><rect width="367" height="78" fill="#FA6A17"></rect><path d="M26.82 53L30.126 26.4H34.382L31.114 53H26.82ZM12.76 46.92V42.778H37.308V46.92H12.76ZM16.978 53L20.284 26.4H24.54L21.234 53H16.978ZM14.052 36.622V32.48H38.562L38.6 36.622H14.052ZM39.6536 53L51.5096 26.4H57.5896L69.4836 53H63.0236L53.2956 29.516H55.7276L45.9616 53H39.6536ZM45.5816 47.3L47.2156 42.626H60.8956L62.5676 47.3H45.5816ZM90.2251 53L81.9411 40.194L86.9191 37.192L97.2171 53H90.2251ZM72.9351 53V26.4H79.0531V53H72.9351ZM77.2671 42.284V37.154H86.5391V42.284H77.2671ZM87.4891 40.384L81.8271 39.7L90.4531 26.4H96.9511L87.4891 40.384ZM100.101 53V26.4H112.489C115.58 26.4 117.986 26.9953 119.709 28.186C121.432 29.3767 122.293 31.074 122.293 33.278C122.293 35.4567 121.482 37.154 119.861 38.37C118.24 39.5607 116.086 40.156 113.401 40.156L114.123 38.56C117.112 38.56 119.43 39.1553 121.077 40.346C122.724 41.5367 123.547 43.2593 123.547 45.514C123.547 47.8447 122.66 49.6813 120.887 51.024C119.139 52.3413 116.58 53 113.211 53H100.101ZM106.219 48.44H112.983C114.402 48.44 115.478 48.1613 116.213 47.604C116.948 47.0467 117.315 46.1853 117.315 45.02C117.315 43.9053 116.948 43.082 116.213 42.55C115.478 41.9927 114.402 41.714 112.983 41.714H106.219V48.44ZM106.219 37.42H111.957C113.3 37.42 114.313 37.154 114.997 36.622C115.681 36.0647 116.023 35.254 116.023 34.19C116.023 33.126 115.681 32.328 114.997 31.796C114.313 31.2387 113.3 30.96 111.957 30.96H106.219V37.42ZM125.413 53L137.269 26.4H143.349L155.243 53H148.783L139.055 29.516H141.487L131.721 53H125.413ZM131.341 47.3L132.975 42.626H146.655L148.327 47.3H131.341ZM156.55 44.678V39.928H167.304V44.678H156.55ZM169.404 26.4H176.51L182.02 34.456L187.53 26.4H194.75L185.896 39.13L195.472 53H188.214L182.02 44.184L175.902 53H168.796L178.296 39.396L169.404 26.4ZM210.911 53.456C208.808 53.456 206.858 53.114 205.059 52.43C203.286 51.746 201.74 50.7833 200.423 49.542C199.131 48.3007 198.118 46.844 197.383 45.172C196.674 43.5 196.319 41.676 196.319 39.7C196.319 37.724 196.674 35.9 197.383 34.228C198.118 32.556 199.144 31.0993 200.461 29.858C201.778 28.6167 203.324 27.654 205.097 26.97C206.87 26.286 208.796 25.944 210.873 25.944C212.976 25.944 214.901 26.286 216.649 26.97C218.422 27.654 219.955 28.6167 221.247 29.858C222.564 31.0993 223.59 32.556 224.325 34.228C225.06 35.8747 225.427 37.6987 225.427 39.7C225.427 41.676 225.06 43.5127 224.325 45.21C223.59 46.882 222.564 48.3387 221.247 49.58C219.955 50.796 218.422 51.746 216.649 52.43C214.901 53.114 212.988 53.456 210.911 53.456ZM210.873 48.212C212.064 48.212 213.153 48.0093 214.141 47.604C215.154 47.1987 216.041 46.616 216.801 45.856C217.561 45.096 218.144 44.1967 218.549 43.158C218.98 42.1193 219.195 40.9667 219.195 39.7C219.195 38.4333 218.98 37.2807 218.549 36.242C218.144 35.2033 217.561 34.304 216.801 33.544C216.066 32.784 215.192 32.2013 214.179 31.796C213.166 31.3907 212.064 31.188 210.873 31.188C209.682 31.188 208.58 31.3907 207.567 31.796C206.579 32.2013 205.705 32.784 204.945 33.544C204.185 34.304 203.59 35.2033 203.159 36.242C202.754 37.2807 202.551 38.4333 202.551 39.7C202.551 40.9413 202.754 42.094 203.159 43.158C203.59 44.1967 204.172 45.096 204.907 45.856C205.667 46.616 206.554 47.1987 207.567 47.604C208.58 48.0093 209.682 48.212 210.873 48.212ZM229.693 53.418C229.237 53.418 228.756 53.38 228.249 53.304C227.768 53.228 227.236 53.1267 226.653 53L227.033 47.794C227.388 47.8953 227.755 47.946 228.135 47.946C229.174 47.946 229.984 47.528 230.567 46.692C231.15 45.8307 231.568 44.602 231.821 43.006C232.074 41.41 232.239 39.472 232.315 37.192L232.695 26.4H253.139V53H247.059V30.01L248.465 31.416H236.723L237.977 29.934L237.749 36.964C237.673 39.5733 237.496 41.8913 237.217 43.918C236.938 45.9447 236.508 47.6673 235.925 49.086C235.342 50.5047 234.544 51.5813 233.531 52.316C232.518 53.0507 231.238 53.418 229.693 53.418ZM277.229 50.264V31.416H268.109L267.995 35.292C267.919 36.9387 267.805 38.4967 267.653 39.966C267.526 41.4353 267.324 42.778 267.045 43.994C266.766 45.1847 266.399 46.198 265.943 47.034C265.512 47.87 264.968 48.4653 264.309 48.82L257.735 47.984C258.647 48.0093 259.394 47.6927 259.977 47.034C260.585 46.3753 261.066 45.4507 261.421 44.26C261.776 43.044 262.029 41.6253 262.181 40.004C262.358 38.3827 262.485 36.622 262.561 34.722L262.865 26.4H283.309V50.264H277.229ZM256.861 58.51L256.899 47.984H287.033V58.51H281.333V53H262.561V58.51H256.861ZM291.177 53V26.4H297.295V53H291.177ZM322.146 26.4H328.302V53H322.146V26.4ZM310.062 53H303.906V26.4H310.062V53ZM322.602 42.094H309.606V36.888H322.602V42.094ZM334.966 53V26.4H353.738L353.7 31.416H339.64L341.046 30.01L341.084 53H334.966Z" fill="white"></path></svg>